<svg fill="none" height="130" width="170" xmlns="http://www.w3.org/2000/svg"><filter id="a" color-interpolation-filters="sRGB" filterUnits="userSpaceOnUse" height="103.434" width="165.284" x="-6.141" y="28.37"><feFlood flood-opacity="0" result="BackgroundImageFix"/><feBlend in="SourceGraphic" in2="BackgroundImageFix" result="shape"/><feGaussianBlur result="effect1_foregroundBlur" stdDeviation="4.571"/></filter><filter id="b" color-interpolation-filters="sRGB" filterUnits="userSpaceOnUse" height="88.918" width="145.685" x="3.871" y="35.415"><feFlood flood-opacity="0" result="BackgroundImageFix"/><feBlend in="SourceGraphic" in2="BackgroundImageFix" result="shape"/><feGaussianBlur result="effect1_foregroundBlur" stdDeviation="2.743"/></filter><filter id="c" color-interpolation-filters="sRGB" filterUnits="userSpaceOnUse" height="82.424" width="136.097" x="6.545" y="39.236"><feFlood flood-opacity="0" result="BackgroundImageFix"/><feBlend in="SourceGraphic" in2="BackgroundImageFix" result="shape"/><feGaussianBlur result="effect1_foregroundBlur" stdDeviation="1.828"/></filter><clipPath id="d"><path d="M0 0h170v130H0z"/></clipPath><g clip-path="url(#d)"><g filter="url(#a)" opacity=".2"><path d="m3 109.952 22.876 12.709L150 50.644l-22.452-13.132z" fill="#000"/></g><g filter="url(#b)" opacity=".4"><path d="m9.356 107.214 20.964 11.634 113.75-65.926L123.494 40.9z" fill="#000"/></g><g filter="url(#c)" opacity=".4"><path d="m10.202 107.634 18.854 10.369 109.929-64.395-18.506-10.715z" fill="#000"/></g><path d="m6.39 102.326 22.452 13.133v-10.591L6.389 93.854z" fill="#000"/><path d="M44.411 95.802c-1.567 2.713-1.077 5.929 1.094 7.182l3.672 2.673c1.029-1.782 5.084-10.108 5.084-10.108l-3.083-2.391c-2.17-1.254-5.2-.07-6.767 2.644zm11.013-6.78c-1.566 2.714-1.077 5.93 1.094 7.183l3.672 2.673c1.03-1.782 5.084-10.108 5.084-10.108l-3.083-2.392c-2.17-1.253-5.2-.07-6.767 2.644zm11.015-6.773c-1.567 2.713-1.077 5.929 1.094 7.182l3.672 2.673c1.029-1.781 5.084-10.107 5.084-10.107l-3.083-2.392c-2.17-1.253-5.2-.07-6.767 2.644z" fill="#1f1f1f"/><g fill="#000"><ellipse rx="4.539" ry="5.673" transform="scale(-1 1) rotate(-30 161.88 146.832)"/><ellipse rx="4.539" ry="5.673" transform="scale(-1 1) rotate(-30 143.731 163.998)"/><ellipse rx="4.539" ry="5.673" transform="scale(-1 1) rotate(-30 125.578 181.16)"/></g><ellipse fill="#fff" rx="2.594" ry="3.243" transform="scale(-1 1) rotate(-30 161.64 146.812)"/><ellipse fill="#fff" rx="2.594" ry="3.243" transform="scale(-1 1) rotate(-30 143.489 163.973)"/><ellipse fill="#fff" rx="2.594" ry="3.243" transform="scale(-1 1) rotate(-30 125.327 181.137)"/><path d="m28.843 106.566 2.542-2.542v9.744l-2.542 1.694z" fill="#1f1f1f"/><path d="M113.145 57v8.049L81.052 83.736a.914.914 0 0 1-1.374-.79v-6.459" stroke="#000" stroke-width="1.828"/><path d="M115.263 63.775V56.15c1.977-1.271 5.677-3.559 4.66-2.542-1.271 1.27-2.118 2.965-2.118 4.236v4.236zM21.64 92.585l22.876 14.827v-10.59L21.64 84.111z" fill="#000"/><path d="m44.516 98.517 1.27-1.27v8.048l-1.27 2.118z" fill="#1f1f1f"/><path d="m3 89.489 22.876 12.708L150 30.18l-22.452-13.132z" fill="#f6f6f6"/><path d="m3 95.974 22.876 13.133v-6.91L3 89.488z" fill="#e2e2e2"/><path d="M25.876 102.197 150 30.18v6.062L25.876 109.106z" fill="#eee"/><rect fill="#05944f" height="40" rx="20" width="40" x="130" y="89"/><path d="M149.167 102.333h-8.334v2.417H145v2.583h-4.167V114c0 .916.75 1.666 1.667 1.666h1.667a4.125 4.125 0 0 1 4.166-4.166c1.334 0 2.584.666 3.334 1.666V99.833h-2.5zm10 10.834h-5.834v2.5h5.834z" fill="#fff"/><path d="M148.333 118.167a2.5 2.5 0 1 0 0-5 2.5 2.5 0 0 0 0 5z" fill="#fff"/></g></svg>