<svg fill="none" height="151" width="380" xmlns="http://www.w3.org/2000/svg"><clipPath id="a"><path d="M0 0h380v150.506H0z"/></clipPath><g clip-path="url(#a)"><path d="M191.504 80.589c-63.861.112-113.76.055-138.895.008a42.67 42.67 0 0 0-30.518 12.76L0 115.798v35.243h344.59l-7.081-7.234a42.315 42.315 0 0 0-30.24-12.715h-28.811a42.32 42.32 0 0 1-29.202-11.691l-28.443-27.12a42.377 42.377 0 0 0-29.309-11.693z" fill="#eee"/><path d="M134.457 122.77c-38.697.062-84.091.016-101.52-.007a16.477 16.477 0 0 0-12.255 5.44L0 151.042h217.753l-3.032-3.087a22.333 22.333 0 0 0-15.932-6.684h-27.037a22.33 22.33 0 0 1-15.449-6.206l-6.353-6.087a22.337 22.337 0 0 0-15.493-6.208z" fill="#cbcbcb"/><path d="M42.697 7.472h46.966v85.393H42.697z" fill="#000"/><path d="M42.697 84.325H90.73v8.54H42.697z" fill="#757575"/><path d="M44.831 86.46h20.281v4.27h-20.28zm22.416 0h20.281v4.27h-20.28z" fill="#1f1f1f"/><path d="M48.909 113.572h15.823v6.723a2.627 2.627 0 0 1-2.627 2.627H51.536a2.627 2.627 0 0 1-2.627-2.627zm56.821 0h16.543v6.723a2.628 2.628 0 0 1-2.628 2.627h-11.288a2.627 2.627 0 0 1-2.627-2.627z" fill="#000"/><path d="M46.633 98.99h76.846v15.107H46.633z" fill="#cbcbcb"/><g fill="#000"><path d="M42.697 99.27h85.393v-6.405H42.697z"/><path d="M65.025 98.99h5.91v15.107h-5.91zm34.81 0h5.91v15.107h-5.91zm-28.9 0h28.9v3.941h-28.9zm0 7.882h28.9v3.94h-28.9z"/></g><path d="M0 7.472h42.697v85.393H0z" fill="#5b91f5"/><path d="M89.663 7.472h38.427v85.393H89.663z" fill="#1e54b7"/><path d="M96.552 13.606h3.284v73.562h-3.284z" fill="#fff"/><path d="M109.687 73.373V76H97.865v-2.627z" fill="#fff"/><circle cx="56.814" cy="106.544" fill="#fff" r="4.269"/><circle cx="113.956" cy="106.544" fill="#fff" r="4.269"/><path d="M42.696 43.764h46.967v40.561H42.696z" fill="#afafaf"/><path d="M53.37 43.764h3.203v40.561H53.37zm22.416 0h3.202v40.561h-3.202z" fill="#545454"/><path d="M42.696 48.033h46.967v32.023H42.696z" fill="#f6f6f6"/></g></svg>