<svg fill="none" height="135" width="175" xmlns="http://www.w3.org/2000/svg"><filter id="a" color-interpolation-filters="sRGB" filterUnits="userSpaceOnUse" height="96.284" width="158.393" x=".612" y="38.5"><feFlood flood-opacity="0" result="BackgroundImageFix"/><feBlend in="SourceGraphic" in2="BackgroundImageFix" result="shape"/><feGaussianBlur result="effect1_foregroundBlur_2891_42188" stdDeviation="2.694"/></filter><filter id="b" color-interpolation-filters="sRGB" filterUnits="userSpaceOnUse" height="84.741" width="141.746" x="9.149" y="44.059"><feFlood flood-opacity="0" result="BackgroundImageFix"/><feBlend in="SourceGraphic" in2="BackgroundImageFix" result="shape"/><feGaussianBlur result="effect1_foregroundBlur_2891_42188" stdDeviation="1.617"/></filter><filter id="c" color-interpolation-filters="sRGB" filterUnits="userSpaceOnUse" height="79.737" width="133.634" x="11.077" y="47.138"><feFlood flood-opacity="0" result="BackgroundImageFix"/><feBlend in="SourceGraphic" in2="BackgroundImageFix" result="shape"/><feGaussianBlur result="effect1_foregroundBlur_2891_42188" stdDeviation="1.078"/></filter><linearGradient id="d" gradientUnits="userSpaceOnUse" x1="70.092" x2="137.926" y1="49.6" y2="9.527"><stop offset="0" stop-color="#f6f6f6"/><stop offset="1" stop-color="#f6f6f6" stop-opacity="0"/></linearGradient><linearGradient id="e" gradientUnits="userSpaceOnUse" x1="87.388" x2="150.595" y1="66.842" y2="30.691"><stop offset="0" stop-color="#eee"/><stop offset="1" stop-color="#eee" stop-opacity="0"/></linearGradient><g filter="url(#a)" opacity=".2"><path d="m6 116.634 22.972 12.762 124.645-72.32L131.07 43.89z" fill="#000"/></g><g filter="url(#b)" opacity=".4"><path d="m12.382 113.884 21.052 11.683 114.228-66.203L127 47.292z" fill="#000"/></g><g filter="url(#c)" opacity=".4"><path d="m13.232 114.306 18.934 10.413 110.39-64.665-18.583-10.76z" fill="#000"/></g><path d="m9.403 108.976 22.547 13.187v-10.635L9.403 100.467z" fill="#000"/><path d="M47.585 102.423c-1.573 2.725-1.081 5.954 1.099 7.212l3.687 2.685c1.033-1.79 5.106-10.151 5.106-10.151l-3.096-2.401c-2.18-1.259-5.223-.07-6.796 2.655zm11.059-6.807c-1.573 2.725-1.082 5.954 1.098 7.213l3.688 2.684c1.033-1.789 5.105-10.15 5.105-10.15L65.44 92.96c-2.18-1.259-5.222-.07-6.795 2.655zm11.061-6.803c-1.573 2.725-1.081 5.954 1.099 7.213l3.687 2.684c1.033-1.789 5.106-10.15 5.106-10.15L76.5 86.158c-2.18-1.258-5.223-.07-6.796 2.655z" fill="#1f1f1f"/><ellipse fill="#000" rx="4.558" ry="5.697" transform="scale(-1 1) rotate(-30 172.673 156.132)"/><ellipse fill="#000" rx="4.558" ry="5.697" transform="scale(-1 1) rotate(-30 154.45 173.372)"/><ellipse fill="#000" rx="4.558" ry="5.697" transform="scale(-1 1) rotate(-30 136.216 190.605)"/><ellipse fill="#fff" rx="2.605" ry="3.257" transform="scale(-1 1) rotate(-30 172.43 156.112)"/><ellipse fill="#fff" rx="2.605" ry="3.257" transform="scale(-1 1) rotate(-30 154.204 173.346)"/><ellipse fill="#fff" rx="2.605" ry="3.257" transform="scale(-1 1) rotate(-30 135.967 190.582)"/><path d="m31.951 113.233 2.553-2.553v9.784l-2.552 1.702z" fill="#1f1f1f"/><path d="M116.607 63.458v8.083L83.81 90.638a.539.539 0 0 1-.81-.466v-7.145" stroke="#000" stroke-width="1.078"/><path d="M118.734 70.263v-7.658c1.985-1.276 5.701-3.573 4.68-2.552-1.277 1.276-2.127 2.978-2.127 4.254v4.254zm-94.016 28.93 22.972 14.89v-10.636L24.718 90.685z" fill="#000"/><path d="m47.69 105.15 1.276-1.276v8.083l-1.276 2.127z" fill="#1f1f1f"/><path d="m6 72.393 22.972 12.762 124.645-72.32-24-11.835z" fill="#f6f6f6"/><path d="m6 102.596 22.972 13.188v-30.63L6 72.394z" fill="#e2e2e2"/><path d="m28.972 85.154 124.645-72.319v29.779l-124.645 73.17z" fill="#eee"/><rect fill="#fff" height="39" rx="19.5" width="39" x="135.5" y="89.5"/><path d="M163.25 104.333 155 100.25l-3.25 1.583L160 106zm-16.5 0 3.167-1.583 8.25 4.167L155 108.5zm7.417 13.834L145.833 114v-8.25l8.334 4.167zm6.666-7.667v-3.083l3.334-1.667V114l-8.334 4.167v-8.25l3.334-1.667v3.083z" fill="#000"/><rect height="39" rx="19.5" stroke="#e2e2e2" width="39" x="135.5" y="89.5"/><path d="M149 40.484V14.5l-11.062 6.604v26.224z" fill="#d4e2fc"/><path d="m118 35.637 19.938 11.69V21.11L118 11.483z" fill="#a0bff8"/><path d="m129.5 5 19.5 9.5-11.062 6.61L118 11.483z" fill="#eff4fe"/><path d="M135 48.484V22.5l-11.062 6.604v26.224z" fill="#d4e2fc"/><path d="m104 43.637 19.938 11.69V29.11L104 19.483z" fill="#a0bff8"/><path d="m115.5 13 19.5 9.5-11.062 6.61L104 19.483z" fill="#eff4fe"/><path d="M121 56.484V30.5l-11.062 6.604v26.224z" fill="#d4e2fc"/><path d="m90 51.637 19.938 11.69V37.11L90 27.483z" fill="#a0bff8"/><path d="m101.5 21 19.5 9.5-11.062 6.61L90 27.483z" fill="#eff4fe"/><path d="M107 64.484V38.5l-11.062 6.604v26.224z" fill="#d4e2fc"/><path d="m76 60.657 19.938 10.67V45.11L76 35.483z" fill="#a0bff8"/><path d="m87.5 29 19.5 9.5-11.062 6.61L76 35.483z" fill="#eff4fe"/><path d="M34.626 82 13 70.063 130.5 2 152 13 93.5 47.5z" fill="url(#d)"/><path d="M33 112V83l119-70 1 27.79C115.014 62.79 33 112 33 112z" fill="url(#e)"/></svg>