<svg fill="none" height="136" width="176" xmlns="http://www.w3.org/2000/svg"><filter id="a" color-interpolation-filters="sRGB" filterUnits="userSpaceOnUse" height="96.284" width="158.393" x=".995" y="39.001"><feFlood flood-opacity="0" result="BackgroundImageFix"/><feBlend in="SourceGraphic" in2="BackgroundImageFix" result="shape"/><feGaussianBlur result="effect1_foregroundBlur" stdDeviation="2.694"/></filter><filter id="b" color-interpolation-filters="sRGB" filterUnits="userSpaceOnUse" height="84.741" width="141.746" x="9.532" y="44.56"><feFlood flood-opacity="0" result="BackgroundImageFix"/><feBlend in="SourceGraphic" in2="BackgroundImageFix" result="shape"/><feGaussianBlur result="effect1_foregroundBlur" stdDeviation="1.617"/></filter><filter id="c" color-interpolation-filters="sRGB" filterUnits="userSpaceOnUse" height="79.737" width="133.634" x="11.46" y="47.639"><feFlood flood-opacity="0" result="BackgroundImageFix"/><feBlend in="SourceGraphic" in2="BackgroundImageFix" result="shape"/><feGaussianBlur result="effect1_foregroundBlur" stdDeviation="1.078"/></filter><g filter="url(#a)" opacity=".2"><path d="m6.383 117.134 22.972 12.763L154 57.577 131.453 44.39z" fill="#000"/></g><g filter="url(#b)" opacity=".4"><path d="m12.765 114.385 21.052 11.683 114.228-66.203-20.662-12.072z" fill="#000"/></g><g filter="url(#c)" opacity=".4"><path d="M13.615 114.807 32.55 125.22l110.39-64.666-18.583-10.76z" fill="#000"/></g><path d="m9.786 109.476 22.547 13.188v-10.636l-22.547-11.06z" fill="#000"/><path d="M47.968 102.923c-1.573 2.725-1.081 5.954 1.099 7.213l3.688 2.684c1.033-1.789 5.105-10.15 5.105-10.15l-3.096-2.402c-2.18-1.258-5.223-.07-6.796 2.655zm11.059-6.806c-1.573 2.725-1.082 5.954 1.098 7.212l3.688 2.685c1.033-1.79 5.105-10.15 5.105-10.15l-3.096-2.402c-2.18-1.259-5.222-.07-6.795 2.655zm11.061-6.803c-1.573 2.725-1.082 5.954 1.098 7.213l3.688 2.684c1.033-1.79 5.105-10.15 5.105-10.15l-3.096-2.402c-2.18-1.259-5.222-.07-6.795 2.655z" fill="#1f1f1f"/><g fill="#000"><ellipse rx="4.558" ry="5.697" transform="scale(-1 1) rotate(-30 173.416 157.097)"/><ellipse rx="4.558" ry="5.697" transform="scale(-1 1) rotate(-30 155.193 174.336)"/><ellipse rx="4.558" ry="5.697" transform="scale(-1 1) rotate(-30 136.96 191.57)"/></g><ellipse fill="#fff" rx="2.605" ry="3.257" transform="scale(-1 1) rotate(-30 173.173 157.077)"/><ellipse fill="#fff" rx="2.605" ry="3.257" transform="scale(-1 1) rotate(-30 154.946 174.31)"/><ellipse fill="#fff" rx="2.605" ry="3.257" transform="scale(-1 1) rotate(-30 136.71 191.547)"/><path d="m32.334 113.733 2.553-2.552v9.784l-2.553 1.702z" fill="#1f1f1f"/><path d="M116.99 63.959v8.083L84.193 91.139a.539.539 0 0 1-.81-.466v-7.145" stroke="#000" stroke-width="1.078"/><path d="M119.117 70.763v-7.657c1.986-1.276 5.701-3.574 4.68-2.553-1.276 1.277-2.127 2.978-2.127 4.254v4.254zM25.101 99.694l22.972 14.889v-10.635L25.101 91.186z" fill="#000"/><path d="m48.073 105.651 1.276-1.276v8.083l-1.276 2.127z" fill="#1f1f1f"/><path d="m6.383 72.893 22.972 12.762L154 13.336 131.453.148z" fill="#f6f6f6"/><path d="m6.383 103.097 22.972 13.187v-30.63L6.383 72.894z" fill="#e2e2e2"/><path d="M29.355 85.655 154 13.335v29.78l-124.645 73.17z" fill="#eee"/><rect fill="#276ef1" height="40" rx="20" width="40" x="136" y="89"/><path d="m164.842 109.8-3.384.908L158.5 109l2.958-1.709 3.384.909.65-2.417-2.684-.717.717-2.675-2.408-.65-.909 3.384-2.958 1.708v-2.6l2.883-2.883-1.766-1.767L156 101.95l-2.367-2.367-1.766 1.767 2.883 2.883v2.6l-2.958-1.708-.909-3.384-2.408.65.717 2.675-2.684.717.65 2.417 3.384-.909L153.5 109l-2.958 1.708-3.384-.908-.65 2.416 2.684.717-.717 2.675 2.408.65.909-3.383 2.958-1.709v2.6l-2.883 2.884 1.766 1.766L156 116.05l2.367 2.366 1.766-1.766-2.883-2.884v-2.6l2.958 1.709.909 3.383 2.408-.65-.717-2.675 2.684-.717z" fill="#fff"/></svg>